<?xml version="1.0" encoding="UTF-8" standalone="no"?>
<!-- Created with Inkscape (http://www.inkscape.org/) -->

<svg
   width="512"
   height="512"
   viewBox="0 0 511.99998 511.99998"
   version="1.1"
   id="svg1"
   xmlns="http://www.w3.org/2000/svg"
   xmlns:svg="http://www.w3.org/2000/svg">
  <defs
     id="defs1" />
  <g
     id="layer1"
     transform="translate(-22.694448,-28.922305)">
    <g
       id="g4"
       transform="matrix(4.6921194,0,0,4.6921194,-266.26061,-494.11652)">
      <rect
         style="fill:#ffffff;fill-opacity:1;stroke:none;stroke-width:0.2366;stroke-opacity:1"
         id="rect2"
         width="109.11913"
         height="109.11913"
         x="61.583057"
         y="111.47176" />
      <g
         id="g3"
         transform="matrix(0.77702959,0,0,0.77702959,22.523192,34.973874)">
        <path
           d="m 104.50787,75.245039 h -3.77394 l -10.90251,-29.352906 c 25.15963,-14.257127 33.96551,-46.12600067 20.12771,-71.285639 -14.25713,-25.159637 -46.126,-33.96551 -71.28564,-20.12771 -12.16049,6.709237 -21.38569,18.450401 -24.74031,31.868875 l -38.99744,-4.193274 c -2.93529,-18.4504 -20.12771,-31.449546 -38.578109,-28.514255 -16.773091,2.515964 -28.933582,16.773091 -28.933582,33.546184 0,5.8705823 1.677309,11.7411643 4.6126,17.1924183 l -46.964659,46.1260007 c -8.80587,-6.709236 -19.70838,-10.483182 -31.03022,-10.483182 -28.93358,0 -52.41591,23.482328 -52.41591,52.415908 0,28.933581 23.48233,52.415911 52.41591,52.415911 l 10.48319,62.89909 c -17.19242,7.54789 -25.15964,27.6756 -17.61175,44.86802 7.54789,17.19242 27.6756,25.15964 44.86802,17.61175 15.93444,-6.70924 23.90165,-24.32098 19.28905,-41.09408 l 36.900806,-19.28905 c 23.901654,26.41762 64.9957237,28.51425 91.832674,4.6126 13.41847,-12.16049 21.38569,-29.77224 21.38569,-47.80331 0,-4.6126 -0.41933,-9.64453 -1.67731,-14.25713 l 40.67475,-20.96636 c 12.57982,14.25713 33.96551,15.51511 48.22264,2.93529 14.25712,-12.57982 15.51511,-33.96551 2.93529,-48.222641 -7.96722,-6.70924 -17.19242,-10.90251 -26.83695,-10.90251 z m -223.92077,140.055311 c -5.45125,-5.45125 -12.99914,-8.80587 -20.54703,-9.64452 l -10.48319,-62.8991 c 10.06386,-3.35461 18.86973,-9.64452 25.15964,-18.03107 l 38.997438,20.54704 c -6.289909,16.77309 -5.031927,35.64282 3.354619,51.57725 z m 41.094077,-85.54276 -38.578107,-20.12771 c 1.67731,-5.45126 2.51596,-10.902511 2.51596,-16.773091 0,-10.90251 -3.35462,-21.38569 -9.64453,-30.191565 l 46.964658,-45.706673 c 15.934437,9.644527 36.900802,5.031927 46.545332,-10.9025087 1.25798,-2.096637 2.09663,-4.193273 2.93529,-6.28990997 l 38.99744,4.19327297 c 0.83865,15.0957817 8.38654,29.3529097 20.54703,38.5781097 l -34.3848403,64.157075 c -27.2562697,-10.902511 -58.7058147,-1.25798 -75.8982327,23.063 z m 148.861183,-20.12771 c 0,2.51596 0.41933,5.03193 1.25798,7.54789 l -38.57811,20.12771 c -4.6126,-9.2252 -11.74116,-16.77309 -20.12771,-22.64367 l 34.38484,-64.157077 c 5.45126,2.096637 11.32184,2.935291 17.19242,2.935291 3.35462,0 6.70924,-0.419327 10.06385,-0.838654 l 10.90251,29.352909 c -10.06385,5.87058 -15.51511,16.35376 -15.09578,27.675601 z"
           id="path1-1"
           style="overflow:hidden;stroke-width:4.19327"
           transform="matrix(0.26458333,0,0,0.26458333,130.85167,139.42444)" />
        <path
           id="path1-8-1-7"
           style="fill:#ffffff;fill-opacity:1;stroke:none;stroke-width:0.073263;stroke-opacity:1"
           d="m 140.38615,132.15285 c -0.55386,0 -1.00708,0.45307 -1.00708,1.00708 v 12.05537 c 0,0.5546 0.45322,1.00707 1.00708,1.00707 h 0.504 v 1.51154 h 2.01461 v -1.51154 h 10.07399 v 1.51154 h 2.01461 v -1.51154 h 0.50354 c 0.55461,0 1.00754,-0.45247 1.00754,-1.00707 v -12.05537 c 0,-0.55401 -0.45293,-1.00708 -1.00754,-1.00708 z m 0.504,1.51108 h 14.10321 v 11.04783 h -14.10321 z m 1.00753,1.00754 v 9.03321 h 12.0886 v -9.03321 z m 3.52524,1.99776 c 1.3854,0 2.51906,1.13321 2.51906,2.51861 0,1.38467 -1.13366,2.51816 -2.51906,2.51816 -1.38467,0 -2.51771,-1.13349 -2.51771,-2.51816 0,-1.3854 1.13304,-2.51861 2.51771,-2.51861 z m 7.05183,0 c 0.27767,0 0.504,0.22706 0.504,0.504 v 4.02968 c 0,0.27694 -0.22633,0.50309 -0.504,0.50309 -0.27693,0 -0.50354,-0.22615 -0.50354,-0.50309 v -4.02968 c 0,-0.27694 0.22661,-0.504 0.50354,-0.504 z m -7.55492,0.504 v 0.60461 c -0.42786,0.15092 -0.75526,0.50306 -0.90692,0.90601 h -0.60461 v 1.00753 h 0.60461 c 0.15166,0.42859 0.47906,0.756 0.90692,0.90692 v 0.60461 h 1.00753 v -0.60461 c 0.42786,-0.15092 0.75509,-0.50397 0.90601,-0.90692 h 0.60462 v -1.00753 h -0.60462 c -0.15092,-0.42786 -0.47815,-0.75509 -0.90601,-0.90601 v -0.60461 z" />
        <path
           id="path1-8-1-7-3"
           style="fill:#ffffff;fill-opacity:1"
           d="m 2576.8666,993.66142 c -7.56,0 -13.7458,6.19115 -13.7458,13.75308 v 164.5449 c 0,7.57 6.1858,13.7458 13.7458,13.7458 h 6.8838 v 20.6369 h 27.499 v -20.6369 h 137.5019 v 20.6369 h 27.4989 v -20.6369 h 6.8693 c 7.57,0 13.7531,-6.1758 13.7531,-13.7458 v -164.5449 c 0,-7.56193 -6.1831,-13.75308 -13.7531,-13.75308 z m 6.8838,20.62968 h 192.4998 v 150.799 h -192.4998 z m 13.7531,13.753 v 123.2929 h 164.9936 v -123.2929 z m 48.1141,27.2674 c 18.91,0 34.3827,15.4654 34.3827,34.3754 0,18.9 -15.4727,34.3755 -34.3827,34.3755 -18.9,0 -34.3682,-15.4755 -34.3682,-34.3755 0,-18.91 15.4682,-34.3754 34.3682,-34.3754 z m 96.2499,0 c 3.79,0 6.8838,3.0965 6.8838,6.8765 v 55.0051 c 0,3.78 -3.0938,6.8693 -6.8838,6.8693 -3.78,0 -6.8693,-3.0893 -6.8693,-6.8693 v -55.0051 c 0,-3.78 3.0893,-6.8765 6.8693,-6.8765 z m -103.1192,6.8765 v 8.2519 c -5.84,2.06 -10.3078,6.8705 -12.3778,12.3705 h -8.2518 v 13.7531 h 8.2518 c 2.07,5.85 6.5378,10.3178 12.3778,12.3778 v 8.2518 h 13.7531 v -8.2518 c 5.84,-2.06 10.3105,-6.8778 12.3705,-12.3778 h 8.2446 v -13.7531 h -8.2446 c -2.06,-5.84 -6.5305,-10.3105 -12.3705,-12.3705 v -8.2519 z"
           transform="matrix(0.06289731,0,0,0.06289731,-82.022365,94.831671)" />
        <path
           id="path1-8-1"
           style="fill:#ffffff;fill-opacity:1"
           d="m 2576.8708,993.66021 c -7.56,0 -13.7505,6.18852 -13.7505,13.75049 v 164.5474 c 0,7.57 6.1905,13.7454 13.7505,13.7454 h 6.8778 v 20.6333 h 27.5009 v -20.6333 h 137.4996 v 20.6333 h 27.5009 v -20.6333 h 6.8727 c 7.57,0 13.7504,-6.1754 13.7504,-13.7454 v -164.5474 c 0,-7.56197 -6.1804,-13.75049 -13.7504,-13.75049 z m 6.8778,20.62819 h 192.5014 v 150.797 h -192.5014 z m 13.7504,13.7556 v 123.296 h 165.0005 v -123.296 z m 48.119,27.2668 c 18.91,0 34.3838,15.4687 34.3838,34.3787 0,18.9 -15.4738,34.3685 -34.3838,34.3685 -18.9,0 -34.3685,-15.4685 -34.3685,-34.3685 0,-18.91 15.4685,-34.3787 34.3685,-34.3787 z m 96.2533,0 c 3.79,0 6.8778,3.0977 6.8778,6.8777 v 55.0019 c 0,3.78 -3.0878,6.8676 -6.8778,6.8676 -3.78,0 -6.8727,-3.0876 -6.8727,-6.8676 v -55.0019 c 0,-3.78 3.0927,-6.8777 6.8727,-6.8777 z m -103.1209,6.8777 v 8.2523 c -5.84,2.06 -10.311,6.8709 -12.381,12.3709 h -8.2472 v 13.7505 h 8.2472 c 2.07,5.85 6.541,10.3159 12.381,12.3759 v 8.2523 h 13.7505 v -8.2523 c 5.84,-2.06 10.3108,-6.8759 12.3708,-12.3759 h 8.2473 v -13.7505 h -8.2473 c -2.06,-5.84 -6.5308,-10.3109 -12.3708,-12.3709 v -8.2523 z"
           transform="matrix(0.08943055,0,0,0.08943055,-115.49313,85.768735)" />
      </g>
    </g>
  </g>
</svg>
